<?xml version="1.0" encoding="UTF-8" standalone="no"?> <svg width="64" height="64" viewBox="0 0 64 64" fill="none" xmlns="http://www.w3.org/2000/svg">
<path d="M48.75 25.5H29.25V27.5H48.75V25.5Z" fill="#3350ff"/>
<path d="M56.67 14.42H56.34V4C56.34 3.46957 56.1293 2.96086 55.7542 2.58579C55.3792 2.21071 54.8704 2 54.34 2H23.67C23.1396 2 22.6309 2.21071 22.2558 2.58579C21.8807 2.96086 21.67 3.46957 21.67 4V14.42H21.34C20.8904 14.4263 20.4434 14.4902 20.01 14.61V14.61C20.01 12.2231 19.0618 9.93387 17.374 8.24604C15.6861 6.55821 13.397 5.61 11.01 5.61C8.62306 5.61 6.33388 6.55821 4.64605 8.24604C2.95822 9.93387 2.01001 12.2231 2.01001 14.61V44.42C2.01231 46.512 2.74333 48.5379 4.07739 50.1493C5.41145 51.7608 7.26521 52.8572 9.32001 53.25C9.89974 55.7205 11.2928 57.9246 13.2755 59.5085C15.2582 61.0923 17.7156 61.964 20.2532 61.9836C22.7908 62.0032 25.2613 61.1696 27.2683 59.6166C29.2752 58.0636 30.7022 55.8813 31.32 53.42H56.67C58.0845 53.4173 59.4402 52.8536 60.4395 51.8524C61.4388 50.8513 62 49.4945 62 48.08V19.75C61.9974 18.3372 61.435 16.983 60.436 15.984C59.437 14.985 58.0828 14.4226 56.67 14.42V14.42ZM25.67 6H52.33V14.42H25.67V6ZM6.00001 44.42V14.58C6.00001 13.2539 6.52679 11.9821 7.46448 11.0445C8.40216 10.1068 9.67393 9.58 11 9.58C12.3261 9.58 13.5979 10.1068 14.5355 11.0445C15.4732 11.9821 16 13.2539 16 14.58V44.42C16 45.7461 15.4732 47.0179 14.5355 47.9555C13.5979 48.8932 12.3261 49.42 11 49.42C9.67393 49.42 8.40216 48.8932 7.46448 47.9555C6.52679 47.0179 6.00001 45.7461 6.00001 44.42ZM20.33 58C18.8079 58.0024 17.323 57.5297 16.0825 56.6477C14.8419 55.7657 13.9077 54.5185 13.41 53.08C14.7403 52.7138 15.9686 52.0466 17 51.13C17.4895 51.833 18.1415 52.4074 18.9006 52.8043C19.6597 53.2013 20.5034 53.4091 21.36 53.41H27.16C26.606 54.7668 25.6605 55.9279 24.4441 56.7453C23.2278 57.5628 21.7955 57.9995 20.33 58V58ZM52.75 29.5C52.75 30.0304 52.5393 30.5391 52.1642 30.9142C51.7892 31.2893 51.2804 31.5 50.75 31.5H27.25C26.7196 31.5 26.2109 31.2893 25.8358 30.9142C25.4607 30.5391 25.25 30.0304 25.25 29.5V23.5C25.25 22.9696 25.4607 22.4609 25.8358 22.0858C26.2109 21.7107 26.7196 21.5 27.25 21.5H50.75C51.2804 21.5 51.7892 21.7107 52.1642 22.0858C52.5393 22.4609 52.75 22.9696 52.75 23.5V29.5Z" fill="#3350ff"/>
</svg>
