<?xml version="1.0" encoding="UTF-8" standalone="no"?> <svg width="64" height="64" viewBox="0 0 64 64" fill="none" xmlns="http://www.w3.org/2000/svg">
<path d="M32 3.00001C39.6913 2.86741 47.1202 5.79558 52.6525 11.1404C58.1849 16.4852 61.3674 23.8087 61.5 31.5C61.6326 39.1913 58.7044 46.6202 53.3596 52.1526C48.0149 57.6849 40.6913 60.8674 33 61V52.86C33.8565 52.6389 34.6155 52.1401 35.1583 51.4417C35.7011 50.7432 35.9971 49.8846 36 49V46.82C36.5835 46.6137 37.089 46.2319 37.4471 45.7271C37.8051 45.2222 37.9983 44.619 38 44C37.9981 43.4834 37.8602 42.9764 37.6 42.53C37.9885 42.2817 38.3146 41.9472 38.5529 41.5525C38.7912 41.1577 38.9352 40.7133 38.9739 40.2539C39.0126 39.7944 38.9449 39.3322 38.776 38.9032C38.6071 38.4741 38.3415 38.0898 38 37.78V36.52C40.582 35.1767 42.6386 33.0057 43.8403 30.3547C45.042 27.7038 45.3193 24.7263 44.6278 21.899C43.9363 19.0718 42.3161 16.5583 40.0265 14.7613C37.737 12.9642 34.9106 11.9875 32 11.9875C29.0894 11.9875 26.263 12.9642 23.9735 14.7613C21.6839 16.5583 20.0637 19.0718 19.3722 21.899C18.6807 24.7263 18.958 27.7038 20.1597 30.3547C21.3614 33.0057 23.418 35.1767 26 36.52V37.78C25.6585 38.0898 25.3929 38.4741 25.224 38.9032C25.0551 39.3322 24.9874 39.7944 25.0261 40.2539C25.0648 40.7133 25.2088 41.1577 25.4471 41.5525C25.6854 41.9472 26.0115 42.2817 26.4 42.53C26.1398 42.9764 26.0019 43.4834 26 44C26.0017 44.619 26.1949 45.2222 26.5529 45.7271C26.911 46.2319 27.4165 46.6137 28 46.82V49C28.0029 49.8846 28.2989 50.7432 28.8417 51.4417C29.3845 52.1401 30.1435 52.6389 31 52.86V62C31 62.2652 31.1054 62.5196 31.2929 62.7071C31.4804 62.8947 31.7348 63 32 63C38.1312 63 44.1248 61.1819 49.2227 57.7756C54.3206 54.3693 58.2939 49.5277 60.6403 43.8632C62.9866 38.1987 63.6005 31.9656 62.4043 25.9522C61.2082 19.9388 58.2557 14.4151 53.9203 10.0797C49.5849 5.74428 44.0612 2.79181 38.0478 1.59567C32.0344 0.399528 25.8013 1.01343 20.1368 3.35975C14.4723 5.70606 9.63077 9.67941 6.22444 14.7773C2.81812 19.8753 1 25.8688 1 32H3C3 24.3087 6.05535 16.9325 11.4939 11.4939C16.9325 6.05536 24.3087 3.00001 32 3.00001V3.00001ZM21 25C20.9998 23.0251 21.5312 21.0866 22.5386 19.388C23.5459 17.6893 24.992 16.2932 26.725 15.3462C28.4579 14.3991 30.4139 13.9361 32.3876 14.0057C34.3612 14.0752 36.2797 14.6749 37.9417 15.7416C39.6037 16.8084 40.9479 18.3029 41.8331 20.0682C42.7183 21.8336 43.1119 23.8047 42.9726 25.7747C42.8333 27.7446 42.1662 29.6408 41.0414 31.264C39.9166 32.8873 38.3756 34.1777 36.58 35C36.4064 35.0803 36.2595 35.2088 36.1567 35.3701C36.0539 35.5314 35.9995 35.7187 36 35.91V37H33V27C33 26.7348 32.8946 26.4804 32.7071 26.2929C32.5196 26.1054 32.2652 26 32 26H28C27.7348 26 27.4804 25.8947 27.2929 25.7071C27.1054 25.5196 27 25.2652 27 25C27 24.7348 27.1054 24.4804 27.2929 24.2929C27.4804 24.1054 27.7348 24 28 24H36.5C36.6326 24 36.7598 24.0527 36.8536 24.1465C36.9473 24.2402 37 24.3674 37 24.5C37 24.6326 36.9473 24.7598 36.8536 24.8536C36.7598 24.9473 36.6326 25 36.5 25H35V27H36.5C37.163 27 37.7989 26.7366 38.2678 26.2678C38.7366 25.7989 39 25.1631 39 24.5C39 23.837 38.7366 23.2011 38.2678 22.7322C37.7989 22.2634 37.163 22 36.5 22H28C27.2044 22 26.4413 22.3161 25.8787 22.8787C25.3161 23.4413 25 24.2044 25 25C25 25.7957 25.3161 26.5587 25.8787 27.1213C26.4413 27.6839 27.2044 28 28 28H31V37H28V35.9C28.0005 35.7087 27.9461 35.5214 27.8433 35.3601C27.7405 35.1988 27.5936 35.0703 27.42 34.99C25.5062 34.1136 23.8841 32.7065 22.7461 30.9358C21.6082 29.165 21.0021 27.1049 21 25V25ZM27 40C27 39.7348 27.1054 39.4804 27.2929 39.2929C27.4804 39.1054 27.7348 39 28 39H36C36.2652 39 36.5196 39.1054 36.7071 39.2929C36.8946 39.4804 37 39.7348 37 40C37 40.2652 36.8946 40.5196 36.7071 40.7071C36.5196 40.8947 36.2652 41 36 41H28C27.7348 41 27.4804 40.8947 27.2929 40.7071C27.1054 40.5196 27 40.2652 27 40ZM29 45C28.7348 45 28.4804 44.8947 28.2929 44.7071C28.1054 44.5196 28 44.2652 28 44C28 43.7348 28.1054 43.4804 28.2929 43.2929C28.4804 43.1054 28.7348 43 29 43H35C35.2652 43 35.5196 43.1054 35.7071 43.2929C35.8946 43.4804 36 43.7348 36 44C36 44.2652 35.8946 44.5196 35.7071 44.7071C35.5196 44.8947 35.2652 45 35 45H29ZM30 49V47H34V49C34 49.5304 33.7893 50.0392 33.4142 50.4142C33.0391 50.7893 32.5304 51 32 51C31.4696 51 30.9609 50.7893 30.5858 50.4142C30.2107 50.0392 30 49.5304 30 49Z" fill="#3350ff"/>
</svg>
